HIERARCHY
ROOT Hips
{
	OFFSET 0.000000 0.000000 0.000000
	CHANNELS 6 Xposition Yposition Zposition Xrotation Yrotation Zrotation
	JOINT LeftUpLeg_virtual
	{
		OFFSET 0.000000 0.000000 0.000000
		CHANNELS 3 Xrotation Yrotation Zrotation
		JOINT LeftUpLeg
		{
			OFFSET 10.205400 -3.823500 0.155100
			CHANNELS 3 Xrotation Yrotation Zrotation
			JOINT LeftLeg
			{
				OFFSET 0.708757 -12.982077 0.567790
				CHANNELS 3 Xrotation Yrotation Zrotation
				JOINT LeftFoot
				{
					OFFSET -0.708756 -10.717838 -2.184338
					CHANNELS 3 Xrotation Yrotation Zrotation
					JOINT LeftToeBase
					{
						OFFSET 0.108149 -7.191104 7.560241
						CHANNELS 3 Xrotation Yrotation Zrotation
						JOINT LeftToe_End
						{
							OFFSET 0.070230 0.081724 4.490308
							CHANNELS 3 Xrotation Yrotation Zrotation
							End Site
							{
								OFFSET 0 0 0
							}
						}
					}
				}
			}
		}
	}
	JOINT RightUpLeg_virtual
	{
		OFFSET 0.000000 0.000000 0.000000
		CHANNELS 3 Xrotation Yrotation Zrotation
		JOINT RightUpLeg
		{
			OFFSET -10.205400 -3.823500 0.005500
			CHANNELS 3 Xrotation Yrotation Zrotation
			JOINT RightLeg
			{
				OFFSET -0.708756 -12.982134 0.610632
				CHANNELS 3 Xrotation Yrotation Zrotation
				JOINT RightFoot
				{
					OFFSET 0.708754 -10.717769 -1.945823
					CHANNELS 3 Xrotation Yrotation Zrotation
					JOINT RightToeBase
					{
						OFFSET -0.108140 -7.191069 7.372968
						CHANNELS 3 Xrotation Yrotation Zrotation
						JOINT RightToe_End
						{
							OFFSET -0.070227 0.081735 4.479403
							CHANNELS 3 Xrotation Yrotation Zrotation
							End Site
							{
								OFFSET 0 0 0
							}
						}
					}
				}
			}
		}
	}
	JOINT Spine_virtual
	{
		OFFSET 0.000000 0.000000 0.000000
		CHANNELS 3 Xrotation Yrotation Zrotation
		JOINT Spine
		{
			OFFSET 0.000000 6.876099 0.125700
			CHANNELS 3 Xrotation Yrotation Zrotation
			JOINT Spine1
			{
				OFFSET 0.000000 5.730043 0.104720
				CHANNELS 3 Xrotation Yrotation Zrotation
				JOINT Spine1_split
				{
					OFFSET 0.000000 5.730043 0.104720
					CHANNELS 3 Xrotation Yrotation Zrotation
					JOINT Spine2
					{
						OFFSET 0.000000 5.730043 0.104720
						CHANNELS 3 Xrotation Yrotation Zrotation
						JOINT Neck_virtual
						{
							OFFSET 0.000000 0.000000 0.000000
							CHANNELS 3 Xrotation Yrotation Zrotation
							JOINT Neck
							{
								OFFSET 0.000000 10.314075 0.188496
								CHANNELS 3 Xrotation Yrotation Zrotation
								JOINT Head
								{
									OFFSET 0.000000 7.643700 -2.377400
									CHANNELS 3 Xrotation Yrotation Zrotation
									JOINT HeadTop_End
									{
										OFFSET 0.000000 43.788605 -13.619600
										CHANNELS 3 Xrotation Yrotation Zrotation
										End Site
										{
											OFFSET 0 0 0
										}
									}
								}
							}
						}
						JOINT LeftShoulder_virtual
						{
							OFFSET 0.000000 0.000000 0.000000
							CHANNELS 3 Xrotation Yrotation Zrotation
							JOINT LeftShoulder
							{
								OFFSET 2.196100 4.412489 0.087492
								CHANNELS 3 Xrotation Yrotation Zrotation
								JOINT LeftShoulder_split
								{
									OFFSET 2.196100 4.412489 0.087492
									CHANNELS 3 Xrotation Yrotation Zrotation
									JOINT LeftArm
									{
										OFFSET 8.771219 -2.981674 -0.026999
										CHANNELS 3 Xrotation Yrotation Zrotation
										JOINT LeftForeArm
										{
											OFFSET 8.512804 0.000000 -0.000000
											CHANNELS 3 Xrotation Yrotation Zrotation
											JOINT LeftHand
											{
												OFFSET 18.484802 0.000000 -0.000000
												CHANNELS 3 Xrotation Yrotation Zrotation
												End Site
												{
													OFFSET 0 0 0
												}
											}
										}
									}
								}
							}
						}
						JOINT RightShoulder_virtual
						{
							OFFSET 0.000000 0.000000 0.000000
							CHANNELS 3 Xrotation Yrotation Zrotation
							JOINT RightShoulder
							{
								OFFSET -2.196100 4.412496 0.070690
								CHANNELS 3 Xrotation Yrotation Zrotation
								JOINT RightShoulder_split
								{
									OFFSET -2.196100 4.412496 0.070690
									CHANNELS 3 Xrotation Yrotation Zrotation
									JOINT RightArm
									{
										OFFSET -8.771282 -2.981682 -0.094208
										CHANNELS 3 Xrotation Yrotation Zrotation
										JOINT RightForeArm
										{
											OFFSET -8.494598 0.000000 0.000000
											CHANNELS 3 Xrotation Yrotation Zrotation
											JOINT RightHand
											{
												OFFSET -18.483803 0.000000 0.000001
												CHANNELS 3 Xrotation Yrotation Zrotation
												End Site
												{
													OFFSET 0 0 0
												}
											}
										}
									}
								}
							}
						}
					}
				}
			}
		}
	}
}
MOTION
Frames: 6
Frame Time: 0.03333333
7.367859 28.018587 -7.404435 0.000000 0.000000 0.000000 54.973006 -4.772933 14.929095 -88.189688 3.496375 14.961779 56.351461 -6.623693 0.290945 -15.096555 20.457366 -16.669481 -5.377685 -0.834250 -2.693160 0.000000 0.000000 0.000000 56.398607 -8.589154 16.012226 -44.078851 -0.872325 -16.308818 58.421197 13.553809 -2.118421 -25.063767 -26.871110 10.073868 -30.967658 6.898340 0.630012 0.000000 0.000000 0.000000 58.889987 -3.356882 15.118019 13.633129 0.836304 -0.092605 11.561575 0.178914 -2.973722 0.183132 0.162098 -0.011246 0.000000 0.000000 0.000000 19.311788 0.873953 -3.522252 -18.194034 -2.268765 0.439162 -71.008580 2.705160 19.748413 0.000000 0.000000 0.000000 18.343009 0.495518 -3.728825 8.348537 -3.659544 3.832694 0.135242 -3.994359 -1.246042 -29.392476 -65.653732 -14.433754 -16.702543 -11.264848 -17.135138 0.000000 0.000000 0.000000 20.975921 1.221902 -2.815277 10.966020 31.804503 -13.586932 -6.281276 -1.158544 5.333563 -49.481691 25.901020 19.580839 -15.150773 27.592144 14.239804 0.000000 0.000000 0.000000 
7.056076 28.733128 -7.080087 0.000000 0.000000 0.000000 52.921716 -4.920087 14.605280 -82.343422 4.077027 14.088877 52.414011 -6.828016 -0.014284 -16.879687 20.906780 -15.276784 -3.072653 -0.781860 -2.786161 0.000000 0.000000 0.000000 54.056979 -8.511007 15.419215 -48.254323 0.417038 -16.235524 62.129532 13.042242 -1.903011 -27.682571 -23.879047 5.913760 -27.994611 6.434785 0.687145 0.000000 0.000000 0.000000 56.472492 -3.498578 14.550429 13.445883 0.607779 0.217057 11.334745 0.207889 -2.708774 0.185138 0.187000 -0.001118 0.000000 0.000000 0.000000 19.387632 0.911943 -3.267396 -18.418628 -2.485967 0.504571 -69.044497 3.041674 18.943371 0.000000 0.000000 0.000000 18.189839 0.567745 -3.542595 8.153259 -4.214984 2.225467 0.153003 -4.047365 -0.904474 -28.729189 -63.389053 -18.314316 -16.186566 -11.343618 -16.288060 0.000000 0.000000 0.000000 20.991856 1.273717 -2.674065 10.201103 31.432715 -12.536569 -6.730457 -1.065518 5.198616 -47.391821 23.288814 23.319912 -14.531801 26.786673 13.317782 0.000000 0.000000 0.000000 
6.767061 29.378675 -6.767842 0.000000 0.000000 0.000000 50.526137 -5.297110 14.022375 -76.526525 4.461646 13.431517 48.898205 -7.110499 -0.499849 -18.636438 21.314203 -14.304083 -0.766294 -0.723868 -2.720729 0.000000 0.000000 0.000000 51.551707 -8.815206 14.748096 -51.639027 1.134508 -16.445856 62.670052 12.612796 -1.379311 -27.669277 -21.530583 4.500202 -25.055939 5.977264 0.464957 0.000000 0.000000 0.000000 53.780609 -3.792930 13.788217 13.193515 0.488350 0.620012 11.158918 0.233581 -2.433208 0.216287 0.217209 0.003639 0.000000 0.000000 0.000000 19.371491 0.952363 -3.018882 -18.549844 -2.709924 0.526876 -66.763590 3.261768 18.011272 0.000000 0.000000 0.000000 18.016685 0.630089 -3.349466 7.925959 -4.764279 0.620234 0.133459 -4.070719 -0.544160 -28.252039 -61.171270 -22.584712 -15.420796 -10.806714 -15.205584 0.000000 0.000000 0.000000 20.946425 1.315774 -2.533517 9.449533 30.944736 -11.505804 -7.161033 -0.768465 5.083762 -44.933096 20.593485 26.521643 -14.109975 25.949248 12.631911 0.000000 0.000000 0.000000 
6.511672 29.961105 -6.452909 0.000000 0.000000 0.000000 47.949772 -5.806263 13.131485 -70.708864 4.765588 12.998336 45.498383 -7.390394 -1.086534 -20.184546 21.620052 -13.513285 1.050921 -0.708293 -2.354881 0.000000 0.000000 0.000000 48.897396 -9.385462 13.835783 -53.639402 1.205521 -16.635662 59.771429 12.122517 -0.670465 -26.795098 -19.750662 4.694002 -20.877359 5.665057 -0.177661 0.000000 0.000000 0.000000 50.881798 -4.230953 12.836160 12.856420 0.445610 1.109545 10.998660 0.240894 -2.140447 0.245959 0.245211 0.003744 0.000000 0.000000 0.000000 19.246073 0.983016 -2.768093 -18.544006 -2.922239 0.498463 -64.172407 3.319165 16.995276 0.000000 0.000000 0.000000 17.792185 0.670771 -3.130870 7.709915 -5.312664 -0.830407 0.123941 -4.125058 -0.236218 -27.825453 -59.017636 -26.872384 -14.604794 -9.962615 -14.057494 0.000000 0.000000 0.000000 20.812454 1.335498 -2.369475 8.714010 30.393536 -10.455775 -7.675533 -0.408832 5.068079 -42.178775 17.975260 29.137819 -13.856743 25.057975 12.132507 0.000000 0.000000 0.000000 
6.267897 30.500013 -6.147605 0.000000 0.000000 0.000000 45.304662 -6.560850 12.065919 -64.914159 4.995258 12.743100 42.098052 -7.624312 -1.647017 -21.331237 21.863323 -12.822633 2.345760 -0.724962 -1.864163 0.000000 0.000000 0.000000 46.183260 -9.951657 12.639658 -53.989814 0.648502 -16.660763 54.332430 11.245521 0.063626 -26.116529 -18.443505 5.314882 -15.484918 5.531550 -1.176932 0.000000 0.000000 0.000000 47.862079 -4.697095 11.710925 12.381690 0.399970 1.651394 10.825075 0.203989 -1.838920 0.252063 0.239173 0.002171 0.000000 0.000000 0.000000 19.023209 0.985719 -2.516216 -18.359941 -3.090974 0.411201 -61.243110 3.171287 15.911049 0.000000 0.000000 0.000000 17.490632 0.676006 -2.898234 7.543691 -5.925778 -1.993918 -0.089668 -4.115833 -0.150566 -27.178332 -56.899775 -30.728724 -13.921923 -9.197721 -13.001242 0.000000 0.000000 0.000000 20.577775 1.317079 -2.179893 7.991640 29.777118 -9.346203 -8.206111 -0.121348 5.043792 -39.319155 15.550807 31.299099 -13.745910 24.175931 11.762102 0.000000 0.000000 0.000000 
5.999753 31.011404 -5.864018 0.000000 0.000000 0.000000 42.601563 -7.489174 10.963717 -59.124453 5.222524 12.629015 38.705118 -7.746013 -2.128622 -22.126545 22.092974 -12.124439 3.149039 -0.777762 -1.410888 0.000000 0.000000 0.000000 43.375902 -10.389774 11.345509 -53.192967 -0.131428 -16.483103 47.684235 10.069528 0.503266 -25.172165 -17.686331 6.659099 -10.205635 5.519351 -2.383363 0.000000 0.000000 0.000000 44.806058 -5.058325 10.502509 11.725218 0.292918 2.168138 10.626277 0.109933 -1.545690 0.229339 0.217385 -0.000475 0.000000 0.000000 0.000000 18.730390 0.951408 -2.273076 -17.967593 -3.195380 0.253899 -58.023625 2.835088 14.802179 0.000000 0.000000 0.000000 17.120407 0.640251 -2.663228 7.445693 -6.637276 -2.807856 -0.381211 -4.112660 -0.265169 -26.154130 -54.754089 -33.861052 -13.425671 -8.726611 -12.098406 0.000000 0.000000 0.000000 20.247932 1.251337 -1.971720 7.288039 29.071741 -8.224882 -8.675687 0.189099 5.059906 -36.532633 13.435957 33.104817 -13.728855 23.423270 11.469933 0.000000 0.000000 0.000000 
